<svg xmlns="http://www.w3.org/2000/svg" xmlns:xlink="http://www.w3.org/1999/xlink" viewBox="0 0 804.01 104.16"><defs><style>.cls-1{fill:url(#linear-gradient);}.cls-2{fill:url(#linear-gradient-2);}.cls-3{fill:url(#linear-gradient-3);}.cls-4{fill:url(#linear-gradient-4);}.cls-5{fill:url(#linear-gradient-5);}.cls-6{fill:url(#linear-gradient-6);}.cls-7{fill:url(#linear-gradient-7);}.cls-8{fill:url(#linear-gradient-8);}.cls-9{fill:url(#linear-gradient-9);}</style><linearGradient id="linear-gradient" x1="39.62" y1="14.09" x2="39.62" y2="74.29" gradientUnits="userSpaceOnUse"><stop offset="0" stop-color="#fff"/><stop offset="1" stop-color="#aaa7a8"/></linearGradient><linearGradient id="linear-gradient-2" x1="127.82" y1="14.09" x2="127.82" y2="74.29" xlink:href="#linear-gradient"/><linearGradient id="linear-gradient-3" x1="221.2" y1="14.09" x2="221.2" y2="74.29" xlink:href="#linear-gradient"/><linearGradient id="linear-gradient-4" x1="314.58" y1="14.09" x2="314.58" y2="74.29" xlink:href="#linear-gradient"/><linearGradient id="linear-gradient-5" x1="415.24" y1="14.09" x2="415.24" y2="74.29" xlink:href="#linear-gradient"/><linearGradient id="linear-gradient-6" x1="536.27" y1="14.09" x2="536.27" y2="74.29" xlink:href="#linear-gradient"/><linearGradient id="linear-gradient-7" x1="630.91" y1="14.09" x2="630.91" y2="74.29" xlink:href="#linear-gradient"/><linearGradient id="linear-gradient-8" x1="730.72" y1="14.09" x2="730.72" y2="74.29" xlink:href="#linear-gradient"/><linearGradient id="linear-gradient-9" x1="798.13" y1="14.09" x2="798.13" y2="74.29" xlink:href="#linear-gradient"/></defs><title>Asset 1</title><g id="Layer_2" data-name="Layer 2"><g id="Layer_1-2" data-name="Layer 1"><path class="cls-1" d="M0,10.22V2.1H79.24v8.12H44.38v91.84H34.86V10.22Z"/><path class="cls-2" d="M88.62,102.06V2.1h9.52V45.5H157.5V2.1H167v100H157.5V53.62H98.14v48.44Z"/><path class="cls-3" d="M176.12,102.06l40.32-100h10.64l39.2,100H256.06L243.88,71h-45.5l-12,31.08Zm45.22-90.44-20,51.24h39.34Z"/><path class="cls-4" d="M275.24,102.06V2.1h10.64l58.24,84.56h.28V2.1h9.52v100H343.28L285,17.5h-.28v84.56Z"/><path class="cls-5" d="M373.94,102.06V2.1h9.52V55.86L441.56,2.1h12.88L409.78,43.4l46.76,58.66H444.22L402.64,50,383.46,67.76v34.3Z"/><path class="cls-6" d="M531.44,102.06V60.9L492.1,2.1h11.34l32.9,50.68L569.1,2.1h11.34L541,60.9v41.16Z"/><path class="cls-7" d="M588.91,77.7a62.92,62.92,0,0,1-5.11-25.62,62.94,62.94,0,0,1,5.11-25.62,44.22,44.22,0,0,1,16-19Q615.85,0,631,0a48,48,0,0,1,20.51,4.27,39.67,39.67,0,0,1,14.84,11.55A53.59,53.59,0,0,1,675,32.41a63.58,63.58,0,0,1,3,19.67,63.56,63.56,0,0,1-3,19.67,53.53,53.53,0,0,1-8.68,16.59,39.61,39.61,0,0,1-14.84,11.55A48,48,0,0,1,631,104.16q-15.12,0-26-7.42A44.19,44.19,0,0,1,588.91,77.7Zm6.65-41.79a57.15,57.15,0,0,0-2.24,16.17,57.13,57.13,0,0,0,2.24,16.17,47.35,47.35,0,0,0,6.65,13.93A31.67,31.67,0,0,0,614,92.26a39.85,39.85,0,0,0,33.88,0,31.1,31.1,0,0,0,11.76-10.08,48.43,48.43,0,0,0,6.58-13.93,57.16,57.16,0,0,0,2.24-16.17,57.18,57.18,0,0,0-2.24-16.17A48.46,48.46,0,0,0,659.68,22,31.1,31.1,0,0,0,647.92,11.9a39.85,39.85,0,0,0-33.88,0A31.67,31.67,0,0,0,602.21,22,47.38,47.38,0,0,0,595.56,35.91Z"/><path class="cls-8" d="M691.87,66.08V2.1h9.52V64q-.14,16.8,7.42,24.43T730.65,96q14.42,0,22-7.63T760.06,64V2.1h9.52v64q0,16.8-9.59,27.44t-29.33,10.64q-19.6,0-29.19-10.71T691.87,66.08Z"/><path class="cls-9" d="M804,102.06H792.25V87.22H804Z"/></g></g></svg>