<?xml version="1.0" standalone="no"?>
<!DOCTYPE svg PUBLIC "-//W3C//DTD SVG 20010904//EN"
 "http://www.w3.org/TR/2001/REC-SVG-20010904/DTD/svg10.dtd">
<svg version="1.0" xmlns="http://www.w3.org/2000/svg"
 width="512.000000pt" height="512.000000pt" viewBox="0 0 512.000000 512.000000"
 preserveAspectRatio="xMidYMid meet">
<metadata>
Created by potrace 1.11, written by Peter Selinger 2001-2013
</metadata>
<g transform="translate(0.000000,512.000000) scale(0.100000,-0.100000)"
fill="#000000" stroke="none">
<path d="M2335 5109 c-480 -44 -936 -221 -1325 -513 -123 -92 -341 -304 -443
-431 -244 -302 -436 -708 -511 -1075 -43 -212 -51 -295 -51 -530 0 -310 34
-524 125 -802 45 -135 174 -428 190 -428 13 0 423 699 800 1365 106 187 225
387 264 445 88 130 201 245 278 282 136 66 378 62 511 -9 115 -61 227 -207
256 -333 7 -29 11 -350 11 -910 l0 -865 41 65 c82 128 371 624 669 1145 166
292 334 577 373 634 131 192 251 288 387 310 284 46 501 -52 612 -276 l42 -85
9 -242 c5 -132 6 -608 4 -1056 l-6 -815 30 35 c63 74 167 241 240 385 89 177
155 352 198 525 53 214 61 294 61 630 0 336 -8 416 -61 630 -193 780 -772
1440 -1529 1745 -361 146 -792 209 -1175 174z"/>
<path d="M1813 3141 c-17 -11 -49 -44 -71 -73 -37 -48 -1212 -2051 -1212
-2064 0 -16 142 -173 256 -284 206 -200 401 -337 658 -460 312 -151 589 -225
948 -252 615 -47 1271 158 1758 549 l85 68 3 1184 c1 772 -1 1197 -8 1221 -22
81 -92 129 -189 130 -66 0 -113 -25 -161 -86 -19 -24 -350 -583 -736 -1242
l-700 -1197 -167 -3 -167 -2 0 1172 c0 757 -4 1189 -11 1217 -21 94 -86 140
-194 141 -42 0 -70 -6 -92 -19z"/>
</g>
</svg>
