<svg 
 xmlns="http://www.w3.org/2000/svg"
 xmlns:xlink="http://www.w3.org/1999/xlink"
 width="231px" height="28px">
<defs>
<linearGradient id="PSgrad_0" x1="0%" x2="0%" y1="100%" y2="0%">
  <stop offset="0%" stop-color="rgb(170,168,168)" stop-opacity="1" />
  <stop offset="100%" stop-color="rgb(240,240,240)" stop-opacity="1" />
</linearGradient>

</defs>
<path fill-rule="evenodd"  fill="rgb(75, 75, 75)"
 d="M56.646,25.816 L56.437,25.812 L56.435,25.822 L36.817,25.826 L36.817,23.842 L56.391,23.842 C58.320,23.819 59.899,22.382 59.899,20.616 C59.899,19.077 58.704,17.753 57.122,17.433 C56.640,17.314 56.164,17.231 55.538,17.121 C55.538,17.121 54.084,16.972 50.169,16.493 C46.954,16.144 45.313,15.992 41.224,15.470 C40.609,15.391 40.331,15.358 39.611,15.188 C38.807,14.999 38.215,14.697 37.549,14.203 C36.805,13.651 36.700,12.913 36.700,11.989 C36.701,10.199 38.092,8.673 39.887,8.673 L47.186,8.673 L47.186,10.670 C44.509,10.670 43.187,10.662 40.325,10.670 C39.582,10.673 38.962,11.262 38.962,12.002 C38.962,12.564 39.280,12.990 39.810,13.179 C40.305,13.355 42.293,13.572 43.022,13.691 C43.568,13.780 50.167,14.536 50.167,14.536 C50.167,14.536 56.628,15.327 57.102,15.404 C59.991,15.749 62.000,17.882 62.000,20.602 C62.000,23.481 59.603,25.816 56.646,25.816 ZM51.321,10.404 C51.185,10.652 50.994,10.846 50.748,10.983 C50.502,11.121 50.245,11.189 49.977,11.189 C49.709,11.189 49.451,11.121 49.206,10.983 C48.960,10.846 48.768,10.652 48.632,10.404 C48.494,10.155 48.426,9.896 48.426,9.626 C48.426,9.354 48.496,9.092 48.635,8.842 C48.774,8.591 48.967,8.398 49.215,8.263 C49.463,8.128 49.717,8.061 49.977,8.061 C50.237,8.061 50.491,8.128 50.739,8.263 C50.987,8.398 51.180,8.591 51.318,8.842 C51.457,9.092 51.526,9.354 51.526,9.626 C51.526,9.896 51.458,10.155 51.321,10.404 ZM51.095,8.972 C50.980,8.763 50.818,8.602 50.612,8.489 C50.405,8.376 50.193,8.320 49.977,8.320 C49.759,8.320 49.547,8.376 49.341,8.489 C49.135,8.602 48.974,8.763 48.857,8.972 C48.741,9.182 48.683,9.400 48.683,9.626 C48.683,9.851 48.740,10.067 48.854,10.274 C48.969,10.481 49.129,10.642 49.334,10.757 C49.540,10.872 49.754,10.930 49.977,10.930 C50.200,10.930 50.414,10.872 50.620,10.757 C50.825,10.642 50.985,10.481 51.098,10.274 C51.212,10.067 51.269,9.851 51.269,9.626 C51.269,9.400 51.211,9.182 51.095,8.972 ZM50.221,10.225 C50.105,10.017 50.011,9.886 49.940,9.834 C49.891,9.795 49.819,9.775 49.724,9.775 L49.566,9.775 L49.566,10.491 L49.297,10.491 L49.297,8.807 L49.870,8.807 C50.066,8.807 50.208,8.823 50.295,8.854 C50.383,8.885 50.453,8.939 50.505,9.017 C50.557,9.094 50.583,9.176 50.583,9.263 C50.583,9.386 50.539,9.493 50.452,9.585 C50.366,9.676 50.250,9.727 50.106,9.738 C50.165,9.763 50.213,9.793 50.248,9.827 C50.315,9.894 50.397,10.005 50.495,10.161 L50.698,10.491 L50.369,10.491 L50.221,10.225 ZM50.212,9.473 C50.269,9.426 50.297,9.364 50.297,9.286 C50.297,9.236 50.284,9.192 50.256,9.153 C50.229,9.113 50.191,9.084 50.142,9.064 C50.094,9.045 50.004,9.035 49.872,9.035 L49.566,9.035 L49.566,9.543 L49.893,9.543 C50.049,9.543 50.155,9.520 50.212,9.473 ZM31.469,8.727 L33.455,8.727 L33.455,25.952 L31.469,25.952 L31.469,8.727 ZM31.476,0.003 L33.455,0.003 L33.455,6.575 L31.476,6.575 L31.476,0.003 ZM26.281,25.952 L26.281,11.720 C26.281,11.313 26.154,10.905 25.817,10.677 C25.557,10.501 25.257,10.460 25.032,10.469 C24.661,10.485 24.391,10.469 23.788,11.413 L15.347,26.002 L13.339,26.002 L13.339,11.719 C13.339,11.312 13.213,10.903 12.875,10.676 C12.616,10.500 12.316,10.459 12.090,10.468 C11.719,10.484 11.450,10.468 10.846,11.412 L2.417,26.000 L0.002,25.999 L2.038,22.418 C2.813,21.487 8.432,11.412 8.432,11.412 C9.499,9.672 10.295,8.694 11.563,8.628 C12.024,8.605 12.241,8.574 12.700,8.628 C13.372,8.708 13.685,8.897 14.144,9.217 C14.502,9.466 14.744,9.799 14.969,10.199 C15.221,10.644 15.340,11.104 15.344,11.616 C15.372,16.205 15.360,17.875 15.352,21.877 C16.832,19.555 21.372,11.413 21.372,11.413 C22.439,9.673 23.236,8.695 24.505,8.630 C24.966,8.606 25.182,8.576 25.642,8.630 C26.314,8.710 26.627,8.898 27.086,9.218 C27.444,9.468 27.686,9.801 27.911,10.200 C28.161,10.646 28.282,11.106 28.285,11.618 C28.320,17.208 28.282,20.362 28.282,25.952 L26.281,25.952 Z"/>
<path fill="url(#PSgrad_0)"
 d="M56.646,25.816 L56.437,25.812 L56.435,25.822 L36.817,25.826 L36.817,23.842 L56.391,23.842 C58.320,23.819 59.899,22.382 59.899,20.616 C59.899,19.077 58.704,17.753 57.122,17.433 C56.640,17.314 56.164,17.231 55.538,17.121 C55.538,17.121 54.084,16.972 50.169,16.493 C46.954,16.144 45.313,15.992 41.224,15.470 C40.609,15.391 40.331,15.358 39.611,15.188 C38.807,14.999 38.215,14.697 37.549,14.203 C36.805,13.651 36.700,12.913 36.700,11.989 C36.701,10.199 38.092,8.673 39.887,8.673 L47.186,8.673 L47.186,10.670 C44.509,10.670 43.187,10.662 40.325,10.670 C39.582,10.673 38.962,11.262 38.962,12.002 C38.962,12.564 39.280,12.990 39.810,13.179 C40.305,13.355 42.293,13.572 43.022,13.691 C43.568,13.780 50.167,14.536 50.167,14.536 C50.167,14.536 56.628,15.327 57.102,15.404 C59.991,15.749 62.000,17.882 62.000,20.602 C62.000,23.481 59.603,25.816 56.646,25.816 ZM51.321,10.404 C51.185,10.652 50.994,10.846 50.748,10.983 C50.502,11.121 50.245,11.189 49.977,11.189 C49.709,11.189 49.451,11.121 49.206,10.983 C48.960,10.846 48.768,10.652 48.632,10.404 C48.494,10.155 48.426,9.896 48.426,9.626 C48.426,9.354 48.496,9.092 48.635,8.842 C48.774,8.591 48.967,8.398 49.215,8.263 C49.463,8.128 49.717,8.061 49.977,8.061 C50.237,8.061 50.491,8.128 50.739,8.263 C50.987,8.398 51.180,8.591 51.318,8.842 C51.457,9.092 51.526,9.354 51.526,9.626 C51.526,9.896 51.458,10.155 51.321,10.404 ZM51.095,8.972 C50.980,8.763 50.818,8.602 50.612,8.489 C50.405,8.376 50.193,8.320 49.977,8.320 C49.759,8.320 49.547,8.376 49.341,8.489 C49.135,8.602 48.974,8.763 48.857,8.972 C48.741,9.182 48.683,9.400 48.683,9.626 C48.683,9.851 48.740,10.067 48.854,10.274 C48.969,10.481 49.129,10.642 49.334,10.757 C49.540,10.872 49.754,10.930 49.977,10.930 C50.200,10.930 50.414,10.872 50.620,10.757 C50.825,10.642 50.985,10.481 51.098,10.274 C51.212,10.067 51.269,9.851 51.269,9.626 C51.269,9.400 51.211,9.182 51.095,8.972 ZM50.221,10.225 C50.105,10.017 50.011,9.886 49.940,9.834 C49.891,9.795 49.819,9.775 49.724,9.775 L49.566,9.775 L49.566,10.491 L49.297,10.491 L49.297,8.807 L49.870,8.807 C50.066,8.807 50.208,8.823 50.295,8.854 C50.383,8.885 50.453,8.939 50.505,9.017 C50.557,9.094 50.583,9.176 50.583,9.263 C50.583,9.386 50.539,9.493 50.452,9.585 C50.366,9.676 50.250,9.727 50.106,9.738 C50.165,9.763 50.213,9.793 50.248,9.827 C50.315,9.894 50.397,10.005 50.495,10.161 L50.698,10.491 L50.369,10.491 L50.221,10.225 ZM50.212,9.473 C50.269,9.426 50.297,9.364 50.297,9.286 C50.297,9.236 50.284,9.192 50.256,9.153 C50.229,9.113 50.191,9.084 50.142,9.064 C50.094,9.045 50.004,9.035 49.872,9.035 L49.566,9.035 L49.566,9.543 L49.893,9.543 C50.049,9.543 50.155,9.520 50.212,9.473 ZM31.469,8.727 L33.455,8.727 L33.455,25.952 L31.469,25.952 L31.469,8.727 ZM31.476,0.003 L33.455,0.003 L33.455,6.575 L31.476,6.575 L31.476,0.003 ZM26.281,25.952 L26.281,11.720 C26.281,11.313 26.154,10.905 25.817,10.677 C25.557,10.501 25.257,10.460 25.032,10.469 C24.661,10.485 24.391,10.469 23.788,11.413 L15.347,26.002 L13.339,26.002 L13.339,11.719 C13.339,11.312 13.213,10.903 12.875,10.676 C12.616,10.500 12.316,10.459 12.090,10.468 C11.719,10.484 11.450,10.468 10.846,11.412 L2.417,26.000 L0.002,25.999 L2.038,22.418 C2.813,21.487 8.432,11.412 8.432,11.412 C9.499,9.672 10.295,8.694 11.563,8.628 C12.024,8.605 12.241,8.574 12.700,8.628 C13.372,8.708 13.685,8.897 14.144,9.217 C14.502,9.466 14.744,9.799 14.969,10.199 C15.221,10.644 15.340,11.104 15.344,11.616 C15.372,16.205 15.360,17.875 15.352,21.877 C16.832,19.555 21.372,11.413 21.372,11.413 C22.439,9.673 23.236,8.695 24.505,8.630 C24.966,8.606 25.182,8.576 25.642,8.630 C26.314,8.710 26.627,8.898 27.086,9.218 C27.444,9.468 27.686,9.801 27.911,10.200 C28.161,10.646 28.282,11.106 28.285,11.618 C28.320,17.208 28.282,20.362 28.282,25.952 L26.281,25.952 Z"/>
<path fill-rule="evenodd"  fill="rgb(75, 75, 75)"
 d="M68.000,6.000 L69.000,6.000 L69.000,28.000 L68.000,28.000 L68.000,6.000 Z"/>
<path fill="url(#PSgrad_0)"
 d="M68.000,6.000 L69.000,6.000 L69.000,28.000 L68.000,28.000 L68.000,6.000 Z"/>
<!-- <text font-family="Arial" fill="rgb(255, 255, 255)" transform="matrix( 1.94225614945158, 0, 0, 1.94225614945158,74.8386259472112, 9.55228783644415)" font-size="12px">MARKETCASE</text> -->
<text font-family="Arial" fill="url(#PSgrad_0)" transform="matrix( 1.94225614945158, 0, 0, 1.94225614945158,74.8386259472112, 9.55228783644415)" font-size="12px">MARKETCASE</text>
</svg>