<svg 
 xmlns="http://www.w3.org/2000/svg"
 xmlns:xlink="http://www.w3.org/1999/xlink"
 width="24px" height="20px">
<path fill-rule="evenodd"  fill="rgb(176, 175, 175)"
 d="M14.323,19.998 C11.096,19.998 8.088,18.339 6.277,15.562 C6.116,15.313 6.179,14.978 6.419,14.810 C6.658,14.645 6.986,14.708 7.147,14.957 C8.763,17.435 11.446,18.914 14.323,18.914 C19.084,18.914 22.957,14.913 22.957,9.994 C22.957,5.075 19.084,1.074 14.323,1.074 C11.390,1.074 8.688,2.586 7.099,5.118 C6.940,5.369 6.616,5.440 6.374,5.278 C6.131,5.115 6.062,4.780 6.219,4.529 C8.004,1.687 11.034,-0.009 14.323,-0.009 C19.663,-0.009 24.006,4.479 24.006,9.994 C24.006,15.510 19.663,19.998 14.323,19.998 ZM1.803,9.508 L9.747,9.508 C10.031,9.508 10.260,9.743 10.260,10.034 C10.260,10.325 10.031,10.561 9.747,10.561 L1.803,10.561 L4.004,12.821 C4.204,13.026 4.204,13.360 4.004,13.565 C3.803,13.771 3.479,13.771 3.279,13.565 L0.299,10.506 C0.127,10.421 0.006,10.244 0.006,10.034 C0.006,9.825 0.127,9.648 0.299,9.563 L3.279,6.504 C3.479,6.298 3.803,6.298 4.004,6.504 C4.104,6.606 4.154,6.741 4.154,6.876 C4.154,7.010 4.104,7.145 4.004,7.248 L1.803,9.508 Z"/>
</svg>