<svg xmlns="http://www.w3.org/2000/svg" width="166" height="166.002" viewBox="0 0 166 166.002">
  <metadata><?xpacket begin="﻿" id="W5M0MpCehiHzreSzNTczkc9d"?>
<x:xmpmeta xmlns:x="adobe:ns:meta/" x:xmptk="Adobe XMP Core 5.6-c138 79.159824, 2016/09/14-01:09:01        ">
   <rdf:RDF xmlns:rdf="http://www.w3.org/1999/02/22-rdf-syntax-ns#">
      <rdf:Description rdf:about=""/>
   </rdf:RDF>
</x:xmpmeta>            
<?xpacket end="w"?></metadata>
<defs>
    <style>
      .cls-1 {
        fill: #454545;
        fill-rule: evenodd;
      }
    </style>
  </defs>
  <path class="cls-1" d="M164.057,1044.92v-166H330.065v166H164.057ZM323.148,885.839H170.974V996.506h15c3.606-8.3,16.37-34.584,33.421-34.584,13.885,0,25.371,11.513,30.745,18l18.245-31.274a15.136,15.136,0,0,1,13.01-7.474,14.977,14.977,0,0,1,13.469,8.329l23.5,47.005h4.781V885.839ZM193.588,996.506H310.634L288.675,952.6a8.139,8.139,0,0,0-14.317-.467l-20.85,35.746a3.457,3.457,0,0,1-5.863.172c-0.131-.189-13.04-19.21-28.252-19.21C208.9,968.839,198.612,985.915,193.588,996.506Zm129.56,6.914H170.974v34.59H323.148v-34.59Zm-93.379-62.248H209.017a13.833,13.833,0,1,1,1.216-27.612A20.731,20.731,0,1,1,229.769,941.172Zm0-34.583a13.736,13.736,0,0,0-13.6,11.645l-0.675,4.228-3.992-1.553a6.825,6.825,0,0,0-2.483-.487,6.917,6.917,0,0,0,0,13.834h20.752A13.834,13.834,0,1,0,229.769,906.589Z" transform="translate(-164.063 -878.938)"/>
</svg>
