<?xml version="1.0" encoding="utf-8"?>
<!-- Generator: Adobe Illustrator 21.1.0, SVG Export Plug-In . SVG Version: 6.00 Build 0)  -->
<svg version="1.1" id="Layer_1" xmlns="http://www.w3.org/2000/svg" xmlns:xlink="http://www.w3.org/1999/xlink" x="0px" y="0px"
	 viewBox="0 0 231.1 28" style="enable-background:new 0 0 231.1 28;" xml:space="preserve">
<defs>
<linearGradient id="the-gradient" x1="0%" y1="0%" x2="100%" y2="100%">
    <stop offset="0%" stop-color="#aaa7a8" />
    <stop offset="100%" stop-color="#f0f0f0" />
  </linearGradient>
</defs>
<style type="text/css">
	.st0{fill-rule:evenodd;clip-rule:evenodd; fill:url(#the-gradient);}
</style>
<g>
	<g>
		<path class="st0" d="M85.7,20.7c-0.4,1.2-0.7,2.1-0.9,2.7c-0.2-0.5-0.4-1.4-0.8-2.5L80.1,9.1h-3.3v16.7h2.1V11.6l4.8,14.2h2
			l4.8-14v14h2.1V9.1h-3L85.7,20.7z M100.8,9.1l-6.4,16.7h2.3l1.8-5.1h7l1.9,5.1h2.5l-6.8-16.7H100.8z M99.2,18.9L101,14
			c0.4-1.1,0.7-2.1,0.9-3.2c0.3,0.9,0.7,2.1,1.2,3.5l1.7,4.6H99.2z M121.8,19c-0.3-0.3-0.7-0.5-1.3-0.8c1.6-0.2,2.8-0.7,3.6-1.5
			c0.8-0.8,1.1-1.8,1.1-3c0-0.9-0.2-1.8-0.7-2.5c-0.5-0.8-1.1-1.3-1.9-1.6c-0.8-0.3-1.9-0.4-3.4-0.4h-7.4v16.7h2.2v-7.4h2.6
			c0.6,0,1,0,1.2,0.1c0.3,0.1,0.7,0.2,1,0.4c0.3,0.2,0.7,0.6,1.1,1.1c0.4,0.5,0.9,1.3,1.6,2.3l2.2,3.5h2.8l-2.9-4.5
			C123,20.3,122.4,19.6,121.8,19z M118.7,16.5H114v-5.5h5.3c1.2,0,2.1,0.3,2.7,0.8c0.6,0.5,0.9,1.2,0.9,1.9c0,0.5-0.1,1-0.4,1.5
			c-0.3,0.5-0.7,0.8-1.3,1C120.5,16.4,119.8,16.5,118.7,16.5z M140.7,9.1h-3l-8.3,8.3V9.1h-2.2v16.7h2.2V20l2.7-2.7l5.9,8.4h2.9
			l-7.3-9.9L140.7,9.1z M145.1,18.1h9.2v-2h-9.2v-5.1h9.9v-2h-12.1v16.7h12.5v-2h-10.2V18.1z M157.1,11.1h5.5v14.7h2.2V11.1h5.5v-2
			h-13.2V11.1z M183.9,19.9c-0.3,1.4-0.9,2.5-1.7,3.2c-0.9,0.7-1.9,1.1-3.1,1.1c-1,0-2-0.3-2.8-0.8c-0.9-0.5-1.5-1.3-1.9-2.4
			c-0.4-1.1-0.6-2.3-0.6-3.7c0-1.1,0.2-2.2,0.5-3.2c0.3-1,1-1.9,1.8-2.5c0.9-0.6,1.9-0.9,3.2-0.9c1.1,0,2,0.3,2.8,0.8
			c0.7,0.6,1.3,1.4,1.7,2.7l2.2-0.5c-0.4-1.5-1.2-2.7-2.4-3.6c-1.1-0.8-2.5-1.3-4.2-1.3c-1.5,0-2.8,0.3-4,1
			c-1.2,0.7-2.2,1.7-2.8,2.9c-0.7,1.3-1,2.8-1,4.5c0,1.6,0.3,3.1,0.9,4.5c0.6,1.4,1.4,2.4,2.6,3.2c1.1,0.7,2.6,1.1,4.4,1.1
			c1.7,0,3.2-0.5,4.4-1.4c1.2-1,2-2.3,2.5-4.1L183.9,19.9z M192.1,9.1l-6.4,16.7h2.3l1.8-5.1h7l1.9,5.1h2.5l-6.8-16.7H192.1z
			 M190.5,18.9l1.8-4.9c0.4-1.1,0.7-2.1,0.9-3.2c0.3,0.9,0.7,2.1,1.2,3.5l1.7,4.6H190.5z M212.7,17c-0.7-0.3-1.9-0.7-3.7-1.1
			c-1.8-0.4-2.9-0.8-3.3-1.2c-0.4-0.4-0.6-0.9-0.6-1.5c0-0.7,0.3-1.3,0.9-1.8c0.6-0.5,1.6-0.7,2.9-0.7c1.3,0,2.3,0.3,2.9,0.8
			c0.7,0.5,1,1.3,1.2,2.4l2.1-0.2c0-1-0.3-1.9-0.8-2.6c-0.5-0.8-1.2-1.4-2.2-1.8c-0.9-0.4-2-0.6-3.3-0.6c-1.1,0-2.1,0.2-3.1,0.6
			c-0.9,0.4-1.6,0.9-2.1,1.7c-0.5,0.7-0.7,1.5-0.7,2.4c0,0.8,0.2,1.5,0.6,2.1c0.4,0.6,1,1.1,1.8,1.6c0.6,0.3,1.7,0.7,3.2,1
			c1.5,0.4,2.5,0.6,3,0.8c0.7,0.3,1.2,0.6,1.5,1c0.3,0.4,0.5,0.8,0.5,1.4c0,0.5-0.2,1-0.5,1.4c-0.3,0.4-0.8,0.8-1.4,1
			c-0.6,0.3-1.4,0.4-2.2,0.4c-0.9,0-1.8-0.2-2.6-0.5c-0.8-0.3-1.3-0.8-1.7-1.3c-0.4-0.5-0.6-1.2-0.7-2.1l-2.1,0.2
			c0,1.1,0.3,2.1,0.9,3c0.6,0.9,1.4,1.5,2.4,2c1,0.4,2.3,0.7,3.8,0.7c1.2,0,2.3-0.2,3.2-0.7c1-0.4,1.7-1,2.2-1.8
			c0.5-0.8,0.8-1.6,0.8-2.5c0-0.9-0.2-1.7-0.7-2.4C214.4,18,213.7,17.4,212.7,17z M220.8,23.8v-5.7h9.2v-2h-9.2v-5.1h9.9v-2h-12.1
			v16.7h12.5v-2H220.8z M68,28h1V6h-1V28z M49.6,9.8h0.2c0.1,0,0.2,0,0.2,0.1c0.1,0.1,0.2,0.2,0.3,0.4l0.1,0.3h0.3l-0.2-0.3
			c-0.1-0.2-0.2-0.3-0.2-0.3c0,0-0.1-0.1-0.1-0.1c0.1,0,0.3-0.1,0.3-0.2c0.1-0.1,0.1-0.2,0.1-0.3c0-0.1,0-0.2-0.1-0.2
			c-0.1-0.1-0.1-0.1-0.2-0.2c-0.1,0-0.2,0-0.4,0h-0.6v1.7h0.3V9.8z M49.6,9h0.3c0.1,0,0.2,0,0.3,0c0,0,0.1,0,0.1,0.1
			c0,0,0,0.1,0,0.1c0,0.1,0,0.1-0.1,0.2c-0.1,0-0.2,0.1-0.3,0.1h-0.3V9z M49.2,11c0.2,0.1,0.5,0.2,0.8,0.2c0.3,0,0.5-0.1,0.8-0.2
			c0.2-0.1,0.4-0.3,0.6-0.6c0.1-0.2,0.2-0.5,0.2-0.8c0-0.3-0.1-0.5-0.2-0.8c-0.1-0.3-0.3-0.4-0.6-0.6c-0.2-0.1-0.5-0.2-0.8-0.2
			s-0.5,0.1-0.8,0.2c-0.2,0.1-0.4,0.3-0.6,0.6c-0.1,0.3-0.2,0.5-0.2,0.8c0,0.3,0.1,0.5,0.2,0.8C48.8,10.6,49,10.8,49.2,11z M48.9,9
			c0.1-0.2,0.3-0.4,0.5-0.5c0.2-0.1,0.4-0.2,0.6-0.2c0.2,0,0.4,0.1,0.6,0.2C50.8,8.6,51,8.8,51.1,9c0.1,0.2,0.2,0.4,0.2,0.7
			c0,0.2-0.1,0.4-0.2,0.6c-0.1,0.2-0.3,0.4-0.5,0.5c-0.2,0.1-0.4,0.2-0.6,0.2c-0.2,0-0.4-0.1-0.6-0.2c-0.2-0.1-0.4-0.3-0.5-0.5
			c-0.1-0.2-0.2-0.4-0.2-0.6C48.7,9.4,48.7,9.2,48.9,9z M57.1,15.4c-0.5-0.1-6.9-0.9-6.9-0.9s-6.6-0.8-7.1-0.8
			c-0.7-0.1-2.7-0.3-3.2-0.5C39.3,13,39,12.6,39,12c0-0.7,0.6-1.3,1.4-1.3c2.9,0,4.2,0,6.9,0v-2h-7.3c-1.8,0-3.2,1.5-3.2,3.3
			c0,0.9,0.1,1.7,0.8,2.2c0.7,0.5,1.3,0.8,2.1,1c0.7,0.2,1,0.2,1.6,0.3c4.1,0.5,5.7,0.7,8.9,1c3.9,0.5,5.4,0.6,5.4,0.6
			c0.6,0.1,1.1,0.2,1.6,0.3c1.6,0.3,2.8,1.6,2.8,3.2c0,1.8-1.6,3.2-3.5,3.2H36.8v2l19.6,0l0,0l0.2,0c3,0,5.4-2.3,5.4-5.2
			C62,17.9,60,15.7,57.1,15.4z M27.9,10.2c-0.2-0.4-0.5-0.7-0.8-1c-0.5-0.3-0.8-0.5-1.4-0.6c-0.5-0.1-0.7,0-1.1,0
			c-1.3,0.1-2.1,1-3.1,2.8c0,0-4.5,8.1-6,10.5c0-4,0-5.7,0-10.3c0-0.5-0.1-1-0.4-1.4c-0.2-0.4-0.5-0.7-0.8-1
			c-0.5-0.3-0.8-0.5-1.4-0.6c-0.5-0.1-0.7,0-1.1,0c-1.3,0.1-2.1,1-3.1,2.8c0,0-5.6,10.1-6.4,11L0,26l2.4,0l8.4-14.6
			c0.6-0.9,0.9-0.9,1.2-0.9c0.2,0,0.5,0,0.8,0.2c0.3,0.2,0.5,0.6,0.5,1V26h2l8.4-14.6c0.6-0.9,0.9-0.9,1.2-0.9c0.2,0,0.5,0,0.8,0.2
			c0.3,0.2,0.5,0.6,0.5,1v14.2h2c0-5.6,0-8.7,0-14.3C28.3,11.1,28.2,10.6,27.9,10.2z M31.5,6.6h2V0h-2V6.6z M31.5,25.9h2V8.7h-2
			V25.9z"/>
	</g>
</g>
</svg>
